<?xml version="1.0" standalone="no"?>
<!DOCTYPE svg PUBLIC "-//W3C//DTD SVG 20010904//EN"
 "http://www.w3.org/TR/2001/REC-SVG-20010904/DTD/svg10.dtd">
<svg version="1.0" xmlns="http://www.w3.org/2000/svg"
 width="512.000000pt" height="512.000000pt" viewBox="0 0 512.000000 512.000000"
 preserveAspectRatio="xMidYMid meet">
<metadata>
Created by potrace 1.11, written by Peter Selinger 2001-2013
</metadata>
<g transform="translate(0.000000,512.000000) scale(0.100000,-0.100000)"
fill="#000000" stroke="none">
<path d="M1700 5113 c-38 -12 -60 -28 -69 -52 -13 -30 -9 -53 15 -101 29 -56
27 -119 -6 -187 -15 -32 -39 -71 -53 -87 l-24 -30 -44 45 c-83 83 -233 144
-373 154 -53 4 -66 1 -85 -16 -30 -28 -66 -87 -123 -202 -103 -205 -161 -400
-192 -637 -13 -103 -14 -387 -2 -462 3 -21 8 -54 11 -75 3 -20 12 -68 21 -107
8 -39 17 -82 20 -95 6 -31 62 -197 79 -236 8 -16 22 -48 31 -70 10 -22 20 -43
22 -47 2 -5 -17 -8 -41 -8 -134 0 -270 -88 -334 -215 -126 -252 69 -559 350
-550 52 1 61 -6 70 -60 57 -338 270 -695 557 -934 116 -97 316 -215 440 -260
75 -28 80 -32 80 -73 l0 -38 -137 -1 c-76 0 -158 -2 -183 -4 -103 -8 -232 -55
-329 -120 -155 -106 -271 -308 -288 -500 -7 -84 3 -116 44 -134 17 -8 416 -11
1412 -11 1380 0 1387 0 1409 20 29 27 35 57 28 132 -26 278 -228 517 -504 594
-50 14 -189 23 -400 24 -33 0 -33 1 -30 41 l3 42 73 28 c502 192 881 641 997
1179 l16 75 69 1 c108 2 181 34 261 113 49 50 71 81 88 124 56 151 22 310 -90
418 -72 70 -133 96 -240 106 l-55 5 46 117 c26 64 59 159 74 211 23 83 33 131
61 300 10 64 13 344 5 420 -17 142 -19 156 -40 245 -6 28 -13 59 -16 69 -17
83 -111 323 -174 441 -18 33 -82 133 -144 221 -148 215 -167 223 -272 113
-137 -142 -306 -233 -472 -255 -26 -3 -50 -8 -53 -10 -4 -2 -26 13 -50 34
-147 128 -325 203 -614 260 -55 11 -134 23 -175 27 -41 4 -84 9 -95 12 -27 6
-556 12 -575 6z"/>
</g>
</svg>
